<?xml version="1.0" standalone="no"?>
<!DOCTYPE svg PUBLIC "-//W3C//DTD SVG 20010904//EN"
 "http://www.w3.org/TR/2001/REC-SVG-20010904/DTD/svg10.dtd">
<svg version="1.0" xmlns="http://www.w3.org/2000/svg"
 width="200.000000pt" height="200.000000pt" viewBox="0 0 200.000000 200.000000"
 preserveAspectRatio="xMidYMid meet">
<metadata>
Created by potrace 1.15, written by Peter Selinger 2001-2017
</metadata>
<g transform="translate(0.000000,200.000000) scale(0.100000,-0.100000)"
fill="#000000" stroke="none">
<path d="M1078 1523 c-136 -174 -246 -319 -244 -320 2 -2 41 3 87 11 46 8 85
13 86 12 2 -1 -87 -123 -197 -271 -110 -147 -198 -270 -196 -272 2 -2 32 1 67
6 34 6 65 9 67 7 2 -2 -87 -122 -197 -267 -111 -144 -199 -264 -196 -267 3 -3
24 12 48 34 23 22 191 181 372 354 182 172 341 324 354 336 14 13 22 26 19 30
-4 3 -52 -4 -109 -15 -56 -12 -104 -19 -106 -17 -2 2 114 126 258 275 144 150
259 275 255 278 -3 3 -62 -2 -132 -11 -69 -10 -127 -16 -130 -14 -2 3 102 97
231 209 129 112 235 207 235 211 0 5 -73 8 -163 8 l-162 0 -247 -317z"/>
</g>
</svg>
